#!OML:ASF F:\VICON\USERDATA\INSTALL\Justin_Nancy\Justin_Nancy.ASF
:FULLY-SPECIFIED
:DEGREES
488
root -21.0547 17.2831 12.9897 304.377 -84.6947 -302.007
lowerback 5.29119 -1.69502 -7.36682
upperback -0.922308 -2.66937 2.41791
thorax -3.48578 -1.15505 6.89609
lowerneck -15.7875 -3.82911 -6.92976
upperneck 24.0652 -4.44682 2.15996
head 10.5428 -2.54644 1.29787
rclavicle -8.69683e-015 2.38542e-015
rhumerus -39.2105 -18.1394 -74.1911
rradius 28.5108
rwrist 9.04282
rhand -14.8564 12.3238
rfingers 7.12502
rthumb 11.3032 -17.3516
lclavicle -8.69683e-015 2.38542e-015
lhumerus -23.793 7.91529 86.0972
lradius 27.4402
lwrist -11.0988
lhand -8.46793 20.9361
lfingers 7.12502
lthumb 17.4586 50.1721
rfemur -31.0588 0.545318 15.9287
rtibia 26.1324
rfoot -4.66582 -11.9636
rtoes 10.9354
lfemur 0.91317 1.25907 -28.7943
ltibia 20.6053
lfoot -17.3216 -3.09107
ltoes 6.16322
489
root -21.1874 17.2639 12.9864 300.873 -83.932 -298.584
lowerback 5.48471 -1.68886 -8.16371
upperback -0.888241 -2.73553 2.20181
thorax -3.52484 -1.17197 7.13437
lowerneck -15.9584 -3.89169 -7.17867
upperneck 24.1936 -4.47533 2.22925
head 10.6337 -2.57397 1.35665
rclavicle -2.79789e-014 4.77083e-015
rhumerus -39.4819 -18.7395 -73.7483
rradius 28.5898
rwrist 9.79898
rhand -14.8792 12.1361
rfingers 7.12502
rthumb 11.2812 -17.5406
lclavicle -2.79789e-014 4.77083e-015
lhumerus -23.5166 8.05023 86.2241
lradius 27.6131
lwrist -11.313
lhand -8.84059 20.8216
lfingers 7.12502
lthumb 17.0999 50.0891
rfemur -30.5618 0.648875 14.9734
rtibia 23.4892
rfoot -3.94215 -11.7775
rtoes 6.85276
lfemur 1.86926 1.24684 -29.6562
ltibia 19.9684
lfoot -17.4638 -2.74458
ltoes 4.88673
490
root -21.3171 17.2495 12.998 302.405 -83.5956 -300.459
lowerback 6.03444 -1.73047 -8.33493
upperback -0.835161 -2.84678 2.24437
thorax -3.74984 -1.21384 7.31156
lowerneck -16.0111 -3.9199 -7.43472
upperneck 24.239 -4.45203 2.26815
head 10.6683 -2.58233 1.41533
rclavicle -2.60905e-014 -1.59028e-015
rhumerus -39.6459 -18.964 -73.3203
rradius 28.5078
rwrist 9.8656
rhand -14.2275 12.1345
rfingers 7.12502
rthumb 11.9097 -17.5067
lclavicle -2.60905e-014 -1.59028e-015
lhumerus -23.3054 8.847 86.1321
lradius 27.5773
lwrist -12.8145
lhand -7.52285 18.3426
lfingers 7.12502
lthumb 18.3679 47.4954
rfemur -29.687 0.273243 14.7659
rtibia 20.9232
rfoot -3.70214 -11.2259
rtoes 3.09707
lfemur 3.09903 0.472181 -30.0123
ltibia 19.374
lfoot -17.3819 -2.34576
ltoes 6.12698
491
root -21.4532 17.2501 12.9967 307.227 -84.078 -304.958
lowerback 5.67046 -1.83463 -7.52739
upperback -0.855156 -2.89645 2.31118
thorax -3.58848 -1.26301 6.90615
lowerneck -16.1724 -3.86166 -7.28421
upperneck 24.2865 -4.4359 2.41969
head 10.7144 -2.54086 1.44492
rclavicle 1.2424e-015 -1.74931e-014
rhumerus -39.6464 -19.3975 -73.4048
rradius 28.2674
rwrist 9.79398
rhand -14.3536 12.0286
rfingers 7.12502
rthumb 11.7881 -17.6197
lclavicle 1.2424e-015 -1.74931e-014
lhumerus -23.1041 10.1742 85.2548
lradius 27.4424
lwrist -15.8226
lhand -4.51024 14.0894
lfingers 7.12502
lthumb 21.2639 42.9429
rfemur -29.4917 0.149145 15.6219
rtibia 18.5471
rfoot -4.02442 -10.535
rtoes 0.463347
lfemur 3.55513 0.943778 -28.9965
ltibia 18.831
lfoot -17.3106 -3.57566
ltoes 7.06323
492
root -21.5878 17.2498 12.9901 312.482 -84.2996 -310.071
lowerback 5.58237 -1.99489 -6.87493
upperback -0.887581 -3.05864 2.33552
thorax -3.57444 -1.35732 6.56696
lowerneck -16.1434 -3.76437 -7.10949
upperneck 24.2118 -4.35235 2.44933
head 10.6716 -2.48175 1.43943
rclavicle 2.0276e-014 1.59028e-015
rhumerus -39.6506 -19.7045 -73.4665
rradius 27.8844
rwrist 10.3343
rhand -14.8454 12.0771
rfingers 7.12502
rthumb 11.3138 -17.5978
lclavicle 2.0276e-014 1.59028e-015
lhumerus -23.1487 7.55077 85.9523
lradius 28.6672
lwrist -11.4733
lhand -7.83966 20.7705
lfingers 7.12502
lthumb 18.0631 49.9517
rfemur -28.9653 1.05089 15.7827
rtibia 16.2208
rfoot -4.84729 -10.6182
rtoes 0.54627
lfemur 4.03708 1.1299 -28.257
ltibia 18.5289
lfoot -17.5179 -4.05619
ltoes 4.17805
493
root -21.7142 17.2376 12.9746 311.269 -83.8007 -308.933
lowerback 5.9041 -2.01973 -7.57241
upperback -0.892527 -3.16485 2.32934
thorax -3.70991 -1.38865 6.98374
lowerneck -16.064 -3.79961 -7.02135
upperneck 24.0302 -4.37076 2.25169
head 10.5841 -2.5023 1.35289
rclavicle 2.6339e-015 -7.95139e-016
rhumerus -39.8028 -20.1822 -72.989
rradius 27.7089
rwrist 11.1478
rhand -14.1795 12.4289
rfingers 7.12502
rthumb 11.9561 -17.2096
lclavicle 2.6339e-015 -7.95139e-016
lhumerus -22.9768 6.61728 86.5411
lradius 29.1392
lwrist -8.98216
lhand -8.41119 22.3388
lfingers 7.12502
lthumb 17.5132 51.5699
rfemur -28.1688 2.01674 14.9388
rtibia 13.9414
rfoot -5.30717 -10.805
rtoes 0.280621
lfemur 4.58757 1.12028 -28.5791
ltibia 18.4865
lfoot -17.6663 -4.2995
ltoes 3.704
494
root -21.8439 17.2161 12.9687 310.871 -83.2147 -308.559
lowerback 6.13103 -2.08363 -8.13543
upperback -0.899659 -3.31204 2.2799
thorax -3.79376 -1.44537 7.27635
lowerneck -16.2163 -3.86877 -7.18077
upperneck 24.0189 -4.40546 2.24611
head 10.6161 -2.52987 1.37005
rclavicle 5.56597e-015 -2.06736e-014
rhumerus -40.1007 -21.1212 -72.2077
rradius 27.6211
rwrist 11.8364
rhand -12.805 13.1819
rfingers 7.12502
rthumb 13.2812 -16.3749
lclavicle 5.56597e-015 -2.06736e-014
lhumerus -22.8078 5.69367 87.1944
lradius 29.4655
lwrist -5.92438
lhand -10.4267 22.8887
lfingers 7.12502
lthumb 15.5727 52.2817
rfemur -27.5632 2.68579 14.1985
rtibia 12.2581
rfoot -5.5043 -11.2649
rtoes -0.914721
lfemur 5.16775 0.532916 -29.065
ltibia 18.3717
lfoot -17.6219 -4.31815
ltoes 4.37113
495
root -21.9787 17.1999 12.9721 315.29 -83.2972 -312.878
lowerback 6.23672 -2.13231 -7.73115
upperback -1.03123 -3.35152 2.46266
thorax -3.99528 -1.4581 7.25492
lowerneck -16.0177 -3.9168 -7.20147
upperneck 23.8082 -4.423 2.04593
head 10.4983 -2.56144 1.30307
rclavicle 1.2275e-014 5.56597e-015
rhumerus -40.4891 -21.3644 -71.7356
rradius 27.555
rwrist 11.7452
rhand -12.2512 13.6626
rfingers 7.12502
rthumb 13.8149 -15.8586
lclavicle 1.2275e-014 5.56597e-015
lhumerus -22.785 6.05078 87.3458
lradius 29.6107
lwrist -6.59788
lhand -13.0023 24.0481
lfingers 7.12502
lthumb 13.091 53.6172
rfemur -27.4651 2.87519 14.5804
rtibia 11.6415
rfoot -6.12666 -11.464
rtoes 0.53553
lfemur 5.71762 0.174407 -28.5952
ltibia 18.0091
lfoot -17.391 -4.48483
ltoes 4.35171
496
root -22.1151 17.1905 12.9751 316.116 -83.5192 -313.625
lowerback 6.59579 -1.96873 -8.09486
upperback -1.30317 -3.17534 3.08099
thorax -4.46702 -1.32129 8.14859
lowerneck -15.9644 -4.00989 -7.5867
upperneck 23.9451 -4.31613 1.47402
head 10.5342 -2.62182 1.17675
rclavicle -7.25564e-015 1.66979e-014
rhumerus -40.7926 -20.4077 -70.9638
rradius 27.5998
rwrist 11.1433
rhand -12.8319 13.2361
rfingers 7.12502
rthumb 13.2552 -16.3224
lclavicle -7.25564e-015 1.66979e-014
lhumerus -23.0983 5.8831 88.3928
lradius 29.928
lwrist -5.5486
lhand -9.86659 21.944
lfingers 7.12502
lthumb 16.1121 51.2942
rfemur -27.6395 2.30109 15.2288
rtibia 11.8236
rfoot -6.38091 -10.3753
rtoes 2.51783
lfemur 6.37233 0.16342 -28.3208
ltibia 17.5829
lfoot -17.1642 -4.54609
ltoes 3.95021
497
root -22.2598 17.1766 12.9751 311.979 -83.4581 -309.621
lowerback 5.95665 -1.95628 -7.39154
upperback -0.729315 -3.07288 2.14418
thorax -3.60272 -1.35852 6.6739
lowerneck -16.4877 -3.98677 -6.96506
upperneck 23.8124 -4.57347 2.1938
head 10.5939 -2.58126 1.28829
rclavicle 7.90169e-015 -1.59028e-015
rhumerus -40.4043 -21.7882 -71.9453
rradius 27.4032
rwrist 11.3129
rhand -13.2752 12.8164
rfingers 7.12502
rthumb 12.8279 -16.7694
lclavicle 7.90169e-015 -1.59028e-015
lhumerus -22.3536 4.2796 87.4694
lradius 30.2643
lwrist -3.93531
lhand -11.6641 22.8271
lfingers 7.12502
lthumb 14.3807 52.309
rfemur -27.7172 2.02658 15.2184
rtibia 12.5661
rfoot -6.16259 -9.22387
rtoes -5.60399
lfemur 7.33001 -0.0661537 -28.7584
ltibia 17.1885
lfoot -17.0162 -4.37226
ltoes 4.02578
498
root -22.4048 17.1621 12.9679 308.973 -83.1411 -306.681
lowerback 6.17292 -1.85515 -7.88046
upperback -0.802672 -2.99801 1.99952
thorax -3.79942 -1.2998 6.80747
lowerneck -16.5385 -3.98275 -7.20574
upperneck 23.9699 -4.57959 2.47725
head 10.6755 -2.57477 1.42762
rclavicle -5.96354e-015 -1.59028e-015
rhumerus -40.7124 -21.9626 -71.6355
rradius 27.2704
rwrist 10.9097
rhand -13.1635 12.8209
rfingers 7.12502
rthumb 12.9356 -16.7582
lclavicle -5.96354e-015 -1.59028e-015
lhumerus -22.5007 4.74815 87.3051
lradius 30.4087
lwrist -5.5041
lhand -11.8364 23.2531
lfingers 7.12502
lthumb 14.2146 52.7467
rfemur -28.132 1.10677 15.3355
rtibia 13.9159
rfoot -5.46264 -8.01695
rtoes -4.99311
lfemur 8.23761 -0.49732 -29.3099
ltibia 16.6503
lfoot -16.6992 -4.21592
ltoes 3.35549
499
root -22.5433 17.1502 12.9627 307.867 -83.0031 -305.543
lowerback 6.39886 -1.77325 -8.22805
upperback -0.96059 -2.93558 2.09314
thorax -4.08426 -1.23988 7.11857
lowerneck -16.2827 -4.03857 -7.31967
upperneck 23.9532 -4.59921 2.26951
head 10.6204 -2.62376 1.37276
rclavicle 2.3556e-014 0
rhumerus -40.8362 -21.6302 -71.4075
rradius 27.0487
rwrist 10.8204
rhand -13.393 12.4032
rfingers 7.12502
rthumb 12.7143 -17.1898
lclavicle 2.3556e-014 0
lhumerus -22.7442 5.04331 87.334
lradius 30.6017
lwrist -7.48853
lhand -9.63297 22.7122
lfingers 7.12502
lthumb 16.3371 52.0441
rfemur -28.641 0.208613 15.7541
rtibia 15.3702
rfoot -4.79717 -7.07263
rtoes -3.66925
lfemur 8.89132 -0.496181 -29.4318
ltibia 16.1936
lfoot -16.3126 -4.44824
ltoes 2.28942
500
root -22.6878 17.136 12.9543 306.87 -83.0901 -304.487
lowerback 6.31726 -2.03499 -8.46474
upperback -1.00836 -3.28672 2.41292
thorax -3.99428 -1.40942 7.62079
lowerneck -16.1343 -3.75376 -7.89077
upperneck 23.9292 -4.04217 2.21717
head 10.5682 -2.43162 1.53052
rclavicle 1.54058e-015 1.59028e-015
rhumerus -40.4131 -20.6871 -71.47
rradius 26.6642
rwrist 11.4045
rhand -13.4191 12.0936
rfingers 7.12502
rthumb 12.6892 -17.5009
lclavicle 1.54058e-015 1.59028e-015
lhumerus -22.8593 6.91934 87.1605
lradius 30.6091
lwrist -8.709
lhand -9.10153 22.1715
lfingers 7.12502
lthumb 16.8487 51.4606
rfemur -28.9147 0.00227945 16.1903
rtibia 16.6061
rfoot -4.0566 -6.73895
rtoes -2.94998
lfemur 9.41444 -0.199027 -29.306
ltibia 16.0135
lfoot -16.0898 -4.60402
ltoes -0.192712
501
root -22.8395 17.1282 12.9439 307.777 -83.2172 -305.386
lowerback 6.44574 -2.94148 -9.07819
upperback -1.31787 -4.53226 3.55605
thorax -4.02031 -1.99582 9.32031
lowerneck -15.8672 -2.89218 -10.0678
upperneck 24.019 -2.28877 2.25173
head 10.4941 -1.84123 2.1525
rclavicle 3.51849e-014 -1.74931e-014
rhumerus -39.5795 -17.1253 -71.3188
rradius 26.2032
rwrist 11.6622
rhand -12.9789 12.1324
rfingers 7.12502
rthumb 13.1135 -17.4353
lclavicle 3.51849e-014 -1.74931e-014
lhumerus -23.8226 11.9256 87.1847
lradius 30.7136
lwrist -9.42618
lhand -10.5083 22.2975
lfingers 7.12502
lthumb 15.4941 51.6967
rfemur -28.9965 -0.304629 16.8427
rtibia 17.7562
rfoot -3.25777 -6.55957
rtoes -5.87744
lfemur 10.048 -0.520282 -29.1288
ltibia 15.8226
lfoot -15.694 -4.45873
ltoes -1.41892
502
root -22.9957 17.1335 12.9351 308.263 -83.2894 -305.902
lowerback 6.27082 -1.9116 -8.44004
upperback -0.96995 -3.10922 2.57767
thorax -3.95383 -1.32388 7.76658
lowerneck -16.4923 -3.92049 -7.99753
upperneck 24.1477 -4.21175 2.1933
head 10.7306 -2.52124 1.50942
rclavicle 7.05686e-015 5.56597e-015
rhumerus -40.6162 -21.2611 -70.8114
rradius 26.1874
rwrist 12.3123
rhand -13.165 12.3555
rfingers 7.12502
rthumb 12.9341 -17.2236
lclavicle 7.05686e-015 5.56597e-015
lhumerus -22.8255 7.01464 87.5261
lradius 30.6627
lwrist -6.72118
lhand -12.3685 23.5456
lfingers 7.12502
lthumb 13.7019 53.0745
rfemur -28.9879 -0.633608 17.3981
rtibia 18.7507
rfoot -2.33453 -6.10339
rtoes -7.49704
lfemur 10.6428 -1.11635 -29.1148
ltibia 15.7659
lfoot -15.3464 -4.13728
ltoes -2.1006
